<?xml version="1.0" encoding="utf-8"?>
<!-- Generator: Adobe Illustrator 16.0.4, SVG Export Plug-In . SVG Version: 6.00 Build 0)  -->
<!DOCTYPE svg PUBLIC "-//W3C//DTD SVG 1.0//EN" "http://www.w3.org/TR/2001/REC-SVG-20010904/DTD/svg10.dtd">
<svg version="1.0" id="Layer_1" xmlns="http://www.w3.org/2000/svg" xmlns:xlink="http://www.w3.org/1999/xlink" x="0px" y="0px"
	 width="312px" height="60px" viewBox="0 0 312 60" enable-background="new 0 0 312 60" xml:space="preserve">
<g>
	<path fill="#8DC63F" d="M12.676,37.018c0.044,2.784,2.377,3.905,4.891,3.905c1.843,0,4.177-0.717,4.177-2.962
		c0-1.932-2.649-2.604-7.227-3.593c-3.682-0.808-7.363-2.108-7.363-6.194c0-5.923,5.118-7.451,10.1-7.451
		c5.074,0,9.74,1.705,10.236,7.407h-6.059c-0.183-2.47-2.065-3.145-4.357-3.145c-1.434,0-3.545,0.271-3.545,2.156
		c0,2.289,3.59,2.604,7.227,3.457c3.726,0.853,7.363,2.197,7.363,6.51c0,6.106-5.298,8.08-10.596,8.08
		c-5.387,0-10.64-2.021-10.906-8.171H12.676z"/>
	<path fill="#8DC63F" d="M31.584,28.489c0.357-5.973,5.702-7.767,10.906-7.767c4.625,0,10.191,1.032,10.191,6.599v12.076
		c0,2.109,0.227,4.222,0.808,5.163h-6.463c-0.224-0.72-0.404-1.481-0.451-2.245c-2.021,2.111-4.982,2.873-7.811,2.873
		c-4.398,0-7.9-2.2-7.9-6.959c0-5.25,3.95-6.507,7.9-7.047c3.908-0.584,7.542-0.451,7.542-3.053c0-2.74-1.885-3.145-4.13-3.145
		c-2.422,0-3.994,0.991-4.221,3.504H31.584z M46.307,33.2c-1.077,0.944-3.321,0.991-5.295,1.349
		c-1.977,0.403-3.773,1.076-3.773,3.412c0,2.381,1.841,2.962,3.906,2.962c4.982,0,5.162-3.949,5.162-5.342V33.2z"/>
	<path fill="#8DC63F" d="M70.468,44.561h-7.094l-7.947-23.21h6.687l4.894,15.847H67.1l4.894-15.847h6.33L70.468,44.561z"/>
	<path fill="#8DC63F" d="M86.229,34.504c0.183,4.039,2.156,5.882,5.702,5.882c2.558,0,4.623-1.572,5.026-3.009h5.614
		c-1.794,5.479-5.614,7.812-10.864,7.812c-7.316,0-11.85-5.029-11.85-12.209c0-6.959,4.802-12.257,11.85-12.257
		c7.902,0,11.717,6.643,11.268,13.781H86.229z M96.6,30.466c-0.584-3.233-1.974-4.94-5.074-4.94c-4.041,0-5.207,3.142-5.298,4.94
		H96.6z"/>
</g>
<g>
	<path fill="#00703C" d="M117.163,20.438c7.296,0,11.584,5.444,11.584,12.441c0,6.799-4.288,12.24-11.584,12.24
		c-7.291,0-11.581-5.441-11.581-12.24C105.582,25.882,109.873,20.438,117.163,20.438z M117.163,40.766
		c4.656,0,6.405-3.961,6.405-7.887c0-4.124-1.75-8.085-6.405-8.085c-4.65,0-6.399,3.961-6.399,8.085
		C110.764,36.805,112.513,40.766,117.163,40.766z"/>
	<path fill="#00703C" d="M129.652,20.999h5.148l9.832,15.806h0.066V20.999h4.852v23.562h-5.179l-9.804-15.772h-0.066v15.772h-4.849
		V20.999z"/>
</g>
<g>
	<path fill="#8DC63F" d="M158.859,34.504c0.18,4.039,2.153,5.882,5.702,5.882c2.558,0,4.622-1.572,5.026-3.009h5.613
		c-1.796,5.479-5.613,7.812-10.867,7.812c-7.316,0-11.85-5.029-11.85-12.209c0-6.959,4.802-12.257,11.85-12.257
		c7.902,0,11.719,6.643,11.271,13.781H158.859z M169.228,30.466c-0.581-3.233-1.974-4.94-5.071-4.94
		c-4.041,0-5.209,3.142-5.298,4.94H169.228z"/>
	<path fill="#8DC63F" d="M178.528,21.351h6.062v3.23h0.133c1.616-2.602,4.401-3.858,7.094-3.858c6.778,0,8.483,3.814,8.483,9.561
		v14.277h-6.372V31.451c0-3.814-1.124-5.702-4.085-5.702c-3.46,0-4.938,1.933-4.938,6.644v12.168h-6.377V21.351z"/>
	<path fill="#8DC63F" d="M209.557,34.504c0.18,4.039,2.153,5.882,5.702,5.882c2.558,0,4.623-1.572,5.027-3.009h5.613
		c-1.796,5.479-5.613,7.812-10.867,7.812c-7.316,0-11.85-5.029-11.85-12.209c0-6.959,4.802-12.257,11.85-12.257
		c7.902,0,11.719,6.643,11.271,13.781H209.557z M219.926,30.466c-0.582-3.233-1.974-4.94-5.071-4.94
		c-4.042,0-5.209,3.142-5.298,4.94H219.926z"/>
	<path fill="#8DC63F" d="M229.226,21.351h6.062v4.31h0.089c1.168-2.917,4.312-4.938,7.407-4.938c0.451,0,0.988,0.089,1.393,0.225
		v5.926c-0.584-0.136-1.525-0.227-2.289-0.227c-4.67,0-6.283,3.368-6.283,7.453v10.461h-6.377V21.351z"/>
	<path fill="#8DC63F" d="M268.154,43.079c0,3.817-1.348,10.28-12.032,10.28c-4.578,0-9.921-2.156-10.235-7.454h6.33
		c0.584,2.381,2.514,3.188,4.758,3.188c3.546,0,5.162-2.425,5.117-5.746v-3.053h-0.088c-1.393,2.425-4.177,3.59-6.959,3.59
		c-6.958,0-9.923-5.295-9.923-11.67c0-6.018,3.458-11.492,9.968-11.492c3.053,0,5.387,1.032,6.914,3.726h0.088v-3.098h6.062V43.079z
		 M262.092,32.663c0-3.77-1.301-7.138-5.43-7.138c-3.594,0-5.165,3.142-5.165,6.602c0,3.321,1.257,6.958,5.165,6.958
		C260.296,39.085,262.092,35.985,262.092,32.663z"/>
	<path fill="#8DC63F" d="M283.829,47.478c-1.392,3.726-3.593,5.254-7.991,5.254c-1.304,0-2.604-0.089-3.905-0.228v-5.251
		c1.212,0.092,2.469,0.269,3.726,0.225c2.201-0.225,2.918-2.514,2.201-4.354l-8.172-21.772h6.823l5.253,15.891h0.09l5.072-15.891
		h6.6L283.829,47.478z"/>
</g>
<g>
	<path fill="#8DC63F" d="M298.917,21.049c1.877,0,2.823,1.484,2.823,3.09c0,1.6-0.946,3.089-2.823,3.089
		c-1.876,0-2.829-1.489-2.829-3.089C296.088,22.533,297.041,21.049,298.917,21.049z M298.917,26.565
		c1.435,0,2.038-1.237,2.038-2.427c0-1.19-0.604-2.431-2.038-2.431c-1.438,0-2.042,1.24-2.042,2.431
		C296.875,25.328,297.479,26.565,298.917,26.565z"/>
	<path fill="#8DC63F" d="M302.555,21.188h1.074l1.854,4.957l1.871-4.957h1.074v5.898h-0.747v-4.907h-0.017l-1.838,4.907h-0.67
		l-1.844-4.907h-0.017v4.907h-0.741V21.188z"/>
</g>
</svg>
