<?xml version="1.0" encoding="utf-8"?>
<!-- Generator: Adobe Illustrator 17.0.0, SVG Export Plug-In . SVG Version: 6.00 Build 0)  -->
<!DOCTYPE svg PUBLIC "-//W3C//DTD SVG 1.1//EN" "http://www.w3.org/Graphics/SVG/1.1/DTD/svg11.dtd">
<svg version="1.1" id="Layer_1" xmlns="http://www.w3.org/2000/svg" xmlns:xlink="http://www.w3.org/1999/xlink" x="0px" y="0px"
	 width="293px" height="125px" viewBox="0 0 293 125" enable-background="new 0 0 293 125" xml:space="preserve">
<g>
	<g>
		<g>
			<path fill="#005E55" d="M91.26,51.023h-8.454v-6.847h24.724v6.847h-8.457V72.36h-7.814L91.26,51.023L91.26,51.023z"/>
			<path fill="#005E55" d="M108.34,58.331v-0.085c0-8.09,6.525-14.656,15.222-14.656c8.696,0,15.138,6.48,15.138,14.576v0.079
				c0,8.096-6.521,14.661-15.218,14.661S108.34,66.422,108.34,58.331z M130.731,58.331v-0.085c0-4.067-2.938-7.61-7.248-7.61
				c-4.271,0-7.126,3.466-7.126,7.531v0.079c0,4.07,2.938,7.61,7.206,7.61C127.869,65.856,130.731,62.395,130.731,58.331z"/>
			<path fill="#005E55" d="M142.438,44.154h13.326c4.31,0,7.289,1.127,9.18,3.064c1.653,1.607,2.499,3.782,2.499,6.56v0.079
				c0,4.31-2.294,7.172-5.798,8.657l6.722,9.829h-9.018l-5.678-8.538h-0.079h-3.344v8.538h-7.808
				C142.438,72.342,142.438,44.154,142.438,44.154z M155.403,57.684c2.658,0,4.185-1.289,4.185-3.341v-0.079
				c0-2.218-1.607-3.344-4.227-3.344h-5.115v6.765L155.403,57.684L155.403,57.684z"/>
			<path fill="#005E55" d="M169.959,58.331v-0.085c0-8.09,6.524-14.656,15.218-14.656s15.143,6.48,15.143,14.576v0.079
				c0,8.096-6.525,14.661-15.221,14.661C176.398,72.908,169.959,66.422,169.959,58.331z M192.342,58.331v-0.085
				c0-4.067-2.937-7.61-7.245-7.61c-4.268,0-7.128,3.466-7.128,7.531v0.079c0,4.07,2.935,7.61,7.206,7.61
				C189.483,65.856,192.342,62.395,192.342,58.331z"/>
			<path fill="#005E55" d="M52.909,79.369h7.81v10.548h10.028V79.369h7.805v28.184h-7.805V96.844H60.719v10.709h-7.81
				C52.909,107.553,52.909,79.369,52.909,79.369z"/>
			<path fill="#005E55" d="M91.183,97.005l-10.71-17.636h8.899l5.8,10.267l5.834-10.267h8.738L99.032,96.883v10.67h-7.849V97.005z"
				/>
			<path fill="#005E55" d="M112.292,79.369h10.872c10.064,0,15.907,5.798,15.907,13.93v0.079c0,8.135-5.919,14.176-16.063,14.176
				h-10.716C112.292,107.554,112.292,79.369,112.292,79.369z M123.286,100.626c4.666,0,7.768-2.577,7.768-7.125v-0.082
				c0-4.51-3.101-7.128-7.768-7.128h-3.184v14.333h3.184V100.626z"/>
			<path fill="#005E55" d="M142.438,79.369h13.326c4.31,0,7.289,1.126,9.18,3.057c1.653,1.614,2.499,3.785,2.499,6.565v0.079
				c0,4.307-2.294,7.167-5.798,8.66l6.722,9.823h-9.018l-5.678-8.535h-0.079h-3.344v8.535h-7.808
				C142.438,107.553,142.438,79.369,142.438,79.369z M155.403,92.897c2.658,0,4.185-1.291,4.185-3.341v-0.082
				c0-2.215-1.607-3.341-4.227-3.341h-5.115v6.766h5.156L155.403,92.897L155.403,92.897z"/>
			<path fill="#005E55" d="M169.959,93.538v-0.079c0-8.096,6.524-14.656,15.218-14.656s15.143,6.483,15.143,14.573v0.082
				c0,8.096-6.525,14.656-15.221,14.656C176.398,108.114,169.959,101.633,169.959,93.538z M192.342,93.538v-0.079
				c0-4.064-2.937-7.61-7.245-7.61c-4.268,0-7.128,3.461-7.128,7.528v0.082c0,4.067,2.935,7.61,7.206,7.61
				C189.483,101.068,192.342,97.606,192.342,93.538z"/>
			<g>
				<g>
					<g>
						<path fill="#EEAF2E" d="M1.001,46.14l35.489-5.629l-6.276,9.972L1.001,46.14z"/>
					</g>
					<g>
						<path fill="#EEAF2E" d="M18.07,8.117l24.505,26.268l-11.772,0.381L18.07,8.117z"/>
					</g>
					<g>
						<path fill="#EEAF2E" d="M59.139,1.001l-8.077,35.011l-6.895-9.55L59.139,1.001z"/>
					</g>
					<g>
						<path fill="#EEAF2E" d="M88.002,31.071L54.461,43.956l4.061-11.061L88.002,31.071z"/>
					</g>
					<g>
						<path fill="#EEAF2E" d="M79.214,71.815L49.776,51.211l11.44-2.814L79.214,71.815z"/>
					</g>
					<g>
						<path fill="#EEAF2E" d="M40.522,87.309l0.621-35.919l8.73,7.911L40.522,87.309z"/>
					</g>
				</g>
			</g>
			<path fill="#FBB040" d="M33.837,56.141"/>
			<path fill="#EEAF2E" d="M35.38,57.165c0-0.613-0.493-1.104-1.106-1.104c-0.136,0-0.387,0.062-0.387,0.062
				c-0.194,0.065-0.392,0.172-0.613,0.322c-3.116,2.1-12.395,12.914-17.429,22.795c-7.924,15.553-8.554,30.324-8.514,35.249
				c0.782-4.762,3.538-18.672,10.874-32.488c6.815-12.803,13.073-19.8,15.748-22.785c0.665-0.74,1.007-1.124,1.2-1.387
				C35.295,57.648,35.38,57.417,35.38,57.165z"/>
			<path fill="#005E55" d="M242.599,51.023h-8.454v-6.847h24.721v6.847h-8.456V72.36h-7.813V51.023H242.599z"/>
			<path fill="#005E55" d="M259.678,58.331v-0.085c0-8.09,6.524-14.656,15.216-14.656c8.701,0,15.143,6.48,15.143,14.576v0.079
				c0,8.096-6.525,14.661-15.218,14.661C266.12,72.908,259.678,66.422,259.678,58.331z M282.064,58.331v-0.085
				c0-4.067-2.938-7.61-7.246-7.61c-4.271,0-7.132,3.466-7.132,7.531v0.079c0,4.07,2.944,7.61,7.207,7.61
				C279.207,65.856,282.064,62.395,282.064,58.331z"/>
			<path fill="#005E55" d="M204.052,44.154h7.291l11.592,14.9v-14.9h7.735v28.188h-6.844l-12.041-15.463v15.463h-7.73V44.154
				H204.052z"/>
		</g>
	</g>
	<g>
		<path fill="#005E55" d="M204.032,82.784v-0.023c0-2.109,1.71-3.886,3.863-3.886c2.178,0,3.863,1.756,3.863,3.864v0.023
			c0,2.109-1.71,3.882-3.863,3.882C205.717,86.643,204.032,84.892,204.032,82.784z M211.313,82.761v-0.023
			c0-1.889-1.467-3.444-3.418-3.444c-1.929,0.003-3.419,1.578-3.419,3.466v0.023c0,1.883,1.468,3.438,3.419,3.438
			C209.823,86.222,211.313,84.644,211.313,82.761z M206.295,80.673h1.887c0.932,0,1.623,0.421,1.623,1.332
			c0,0.64-0.354,1.064-0.889,1.241l1.025,1.442h-1.178l-0.867-1.265h-0.626v1.265h-0.976L206.295,80.673L206.295,80.673z
			 M208.113,82.628c0.447,0,0.694-0.225,0.694-0.554c0-0.361-0.272-0.559-0.694-0.559h-0.843v1.113H208.113z"/>
	</g>
</g>
</svg>
